<svg xmlns="http://www.w3.org/2000/svg" width="512" height="512" viewBox="0 0 512 512">
<defs><linearGradient id="s" x1="0" y1="0" x2="0" y2="1"><stop offset="0%" stop-color="#3aa0ff"/><stop offset="100%" stop-color="#bfe9ff"/></linearGradient>
<linearGradient id="g" x1="0" y1="0" x2="0" y2="1"><stop offset="0%" stop-color="#c9b79c"/><stop offset="100%" stop-color="#8f7f68"/></linearGradient></defs>
<rect width="512" height="512" rx="112" fill="url(#s)"/>
<circle cx="392" cy="150" r="34" fill="#fff6c8"/>
<ellipse cx="150" cy="150" rx="60" ry="26" fill="#fff"/><ellipse cx="185" cy="160" rx="46" ry="22" fill="#fff"/>
<path d="M0 300 H512 V512 H0 Z" fill="url(#g)"/>
<g stroke="#e9edf2" stroke-width="10" fill="none"><path d="M256 300 L120 512"/><path d="M256 300 L392 512"/></g>
<g fill="#8a6a48"><rect x="150" y="400" width="212" height="14"/><rect x="130" y="450" width="252" height="16"/></g>
<g transform="translate(256 360)">
<ellipse cx="0" cy="118" rx="70" ry="16" fill="rgba(0,0,0,.2)"/>
<rect x="-70" y="96" width="140" height="16" rx="8" fill="#5b6472"/>
<circle cx="-44" cy="116" r="10" fill="#333"/><circle cx="44" cy="116" r="10" fill="#333"/>
<rect x="-42" y="20" width="84" height="80" rx="30" fill="#ff5a5a"/>
<circle cx="0" cy="-6" r="34" fill="#f2c39b"/>
<path d="M-34 -6 A34 34 0 0 1 34 -6 Z" fill="#2d8cf0"/><rect x="0" y="-10" width="46" height="10" rx="4" fill="#2d8cf0"/>
<circle cx="12" cy="-6" r="5" fill="#1c2b46"/>
</g></svg>
